<svg width="34" height="29" viewBox="0 0 34 29" fill="none" xmlns="http://www.w3.org/2000/svg">
<path d="M17 0.304199C12.4913 0.304199 8.16731 1.41132 4.9792 3.382C1.79108 5.35268 0 8.02549 0 10.8125C0 16.617 17 28.6233 17 28.6233C17 28.6233 34 16.617 34 10.8125C34 8.02549 32.2089 5.35268 29.0208 3.382C25.8327 1.41132 21.5087 0.304199 17 0.304199ZM17 15.3766C14.8689 15.3766 12.8251 14.8533 11.3182 13.9218C9.81132 12.9904 8.96475 11.727 8.96475 10.4097C8.96705 9.09337 9.81464 7.83142 11.3213 6.90111C12.8279 5.97081 14.8704 5.44824 17 5.44824C19.1296 5.44824 21.1721 5.97081 22.6787 6.90111C24.1854 7.83142 25.033 9.09337 25.0353 10.4097C25.0353 11.727 24.1887 12.9904 22.6818 13.9218C21.1749 14.8533 19.1311 15.3766 17 15.3766Z" fill="#DEBA77"/>
</svg>
