<svg width="119" height="19" viewBox="0 0 119 19" fill="none" xmlns="http://www.w3.org/2000/svg">
<path d="M3.032 15.888H10.28V18H0.8V1.2H3.032V15.888ZM12.5188 1.2H14.7508V18H12.5188V1.2ZM34.0747 1.2V18H31.8667V4.872L26.3707 14.016H26.0827L20.5867 4.896V18H18.3547V1.2H20.8747L26.2267 10.08L31.5547 1.2H34.0747ZM51.6352 15.768C49.9552 17.464 47.8992 18.312 45.4672 18.312C43.0352 18.312 40.9792 17.464 39.2992 15.768C37.6192 14.072 36.7792 12.016 36.7792 9.6C36.7792 7.168 37.6192 5.112 39.2992 3.432C40.9792 1.736 43.0352 0.887999 45.4672 0.887999C47.8992 0.887999 49.9552 1.736 51.6352 3.432C53.3312 5.112 54.1792 7.168 54.1792 9.6C54.1792 12.016 53.3312 14.072 51.6352 15.768ZM40.8352 14.256C42.0832 15.504 43.6272 16.128 45.4672 16.128C47.3072 16.128 48.8432 15.504 50.0752 14.256C51.3232 12.992 51.9472 11.44 51.9472 9.6C51.9472 7.744 51.3232 6.192 50.0752 4.944C48.8432 3.68 47.3072 3.048 45.4672 3.048C43.6272 3.048 42.0832 3.68 40.8352 4.944C39.6032 6.192 38.9872 7.744 38.9872 9.6C38.9872 11.44 39.6032 12.992 40.8352 14.256ZM67.3025 1.2H69.5345V18H67.7345L59.0945 5.448V18H56.8625V1.2H58.6625L67.3025 13.728V1.2ZM87.0961 15.768C85.4161 17.464 83.3601 18.312 80.9281 18.312C78.4961 18.312 76.4401 17.464 74.7601 15.768C73.0801 14.072 72.2401 12.016 72.2401 9.6C72.2401 7.168 73.0801 5.112 74.7601 3.432C76.4401 1.736 78.4961 0.887999 80.9281 0.887999C83.3601 0.887999 85.4161 1.736 87.0961 3.432C88.7921 5.112 89.6401 7.168 89.6401 9.6C89.6401 12.016 88.7921 14.072 87.0961 15.768ZM76.2961 14.256C77.5441 15.504 79.0881 16.128 80.9281 16.128C82.7681 16.128 84.3041 15.504 85.5361 14.256C86.7841 12.992 87.4081 11.44 87.4081 9.6C87.4081 7.744 86.7841 6.192 85.5361 4.944C84.3041 3.68 82.7681 3.048 80.9281 3.048C79.0881 3.048 77.5441 3.68 76.2961 4.944C75.0641 6.192 74.4481 7.744 74.4481 9.6C74.4481 11.44 75.0641 12.992 76.2961 14.256ZM95.9654 18L89.9654 1.2H92.3654L97.2374 15.216L102.085 1.2H104.509L98.4854 18H95.9654ZM116.583 18L115.215 14.232H107.655L106.287 18H103.911L110.175 1.2H112.695L118.959 18H116.583ZM108.423 12.144H114.447L111.423 3.864L108.423 12.144Z" fill="white"/>
</svg>
